# xmcd CD database file
#
# Track frame offsets:
#	150
#	54280
#	111867
#	162920
#	208847
#	251623
#	278402
#
# Disc length: 4562 seconds
#
# Revision: 0
# Processed by: cddbd v1.5.2PL0 Copyright (c) Steve Scherf et al.
# Submitted via: CDex 1.51
#
DISCID=5a11d007
DTITLE=Eddie Henderson Quartet - Echoes
DYEAR=2003
DGENRE=Jazz
TTITLE0=On green dolphin street
TTITLE1=Dubaï
TTITLE2=Oasis
TTITLE3=Lost
TTITLE4=Sand storm
TTITLE5=Tender you
TTITLE6=Dolphin dance
EXTD=YEAR: 2003
EXTT0=
EXTT1=
EXTT2=
EXTT3=
EXTT4=
EXTT5=
EXTT6=
PLAYORDER=
